<svg width="13" height="13" viewBox="0 0 13 13" fill="none" xmlns="http://www.w3.org/2000/svg">
    <path d="M6.5 4.875C6.06902 4.875 5.6557 5.0462 5.35095 5.35095C5.0462 5.6557 4.875 6.06902 4.875 6.5C4.875 6.93098 5.0462 7.3443 5.35095 7.64905C5.6557 7.95379 6.06902 8.125 6.5 8.125C6.93098 8.125 7.3443 7.95379 7.64905 7.64905C7.9538 7.3443 8.125 6.93098 8.125 6.5C8.125 6.06902 7.9538 5.6557 7.64905 5.35095C7.3443 5.0462 6.93098 4.875 6.5 4.875ZM6.5 7.3125C6.39327 7.31246 6.28758 7.29141 6.18899 7.25053C6.09039 7.20965 6.00081 7.14975 5.92536 7.07425C5.84992 6.99876 5.79008 6.90914 5.74926 6.81051C5.70845 6.71189 5.68746 6.60619 5.6875 6.49946C5.68754 6.39272 5.70859 6.28704 5.74947 6.18845C5.79035 6.08985 5.85025 6.00027 5.92575 5.92482C6.00124 5.84937 6.09086 5.78954 6.18949 5.74872C6.28811 5.70791 6.39381 5.68692 6.50054 5.68696C6.7161 5.68703 6.92281 5.77273 7.07518 5.92521C7.22755 6.07768 7.31311 6.28444 7.31304 6.5C7.31297 6.71556 7.22727 6.92226 7.0748 7.07464C6.92232 7.22701 6.71556 7.31257 6.5 7.3125Z"
          fill="#AFB1B3"/>
    <path d="M8.02344 1.82812C8.02344 2.20552 7.76614 2.52281 7.4174 2.61416L7.19744 4.48383C7.00808 4.41834 6.80663 4.37877 6.59732 4.36937L6.81294 2.53664C6.56554 2.39736 6.39844 2.13226 6.39844 1.82812C6.39844 1.37939 6.76221 1.01562 7.21094 1.01562C7.65967 1.01562 8.02344 1.37939 8.02344 1.82812Z"
          fill="#AFB1B3"/>
    <path d="M6.15571 4.39483L5.51853 2.73816C5.68458 2.58939 5.78906 2.3733 5.78906 2.13281C5.78906 1.68408 5.42529 1.32031 4.97656 1.32031C4.52783 1.32031 4.16406 1.68408 4.16406 2.13281C4.16406 2.571 4.51094 2.92817 4.94508 2.94471L5.57343 4.57842C5.75473 4.49085 5.9503 4.42817 6.15571 4.39483Z"
          fill="#AFB1B3"/>
    <path fill-rule="evenodd" clip-rule="evenodd"
          d="M5.23899 4.77972L3.49963 3.13835C3.53518 3.04702 3.55469 2.94766 3.55469 2.84375C3.55469 2.39502 3.19092 2.03125 2.74219 2.03125C2.29346 2.03125 1.92969 2.39502 1.92969 2.84375C1.92969 3.29248 2.29346 3.65625 2.74219 3.65625C2.86347 3.65625 2.97855 3.62968 3.08192 3.58203L4.80377 5.20688C4.92767 5.0446 5.07433 4.90062 5.23899 4.77972ZM2.74219 3.35156C3.02264 3.35156 3.25 3.12421 3.25 2.84375C3.25 2.56329 3.02264 2.33594 2.74219 2.33594C2.46173 2.33594 2.23438 2.56329 2.23438 2.84375C2.23438 3.12421 2.46173 3.35156 2.74219 3.35156Z"
          fill="#AFB1B3"/>
    <path d="M6.10014 8.59539L5.88957 10.3852C5.53967 10.4758 5.28125 10.7937 5.28125 11.1719C5.28125 11.6206 5.64502 11.9844 6.09375 11.9844C6.54248 11.9844 6.90625 11.6206 6.90625 11.1719C6.90625 10.8686 6.74008 10.6041 6.49382 10.4645L6.71053 8.62255C6.64127 8.62934 6.57104 8.63281 6.5 8.63281C6.36333 8.63281 6.22967 8.61996 6.10014 8.59539Z"
          fill="#AFB1B3"/>
    <path d="M7.09992 8.54728L8.00072 10.3296C7.82936 10.4786 7.72103 10.6981 7.72103 10.943C7.72103 11.3918 8.08479 11.7555 8.53353 11.7555C8.98226 11.7555 9.34603 11.3918 9.34603 10.943C9.34603 10.509 9.00578 10.1545 8.57749 10.1317L7.6551 8.29324C7.48511 8.40297 7.29851 8.48918 7.09992 8.54728Z"
          fill="#AFB1B3"/>
    <path fill-rule="evenodd" clip-rule="evenodd"
          d="M7.88915 8.11843L10.0226 10.1317C9.97794 10.2323 9.95312 10.3437 9.95312 10.4609C9.95312 10.9097 10.3169 11.2734 10.7656 11.2734C11.2144 11.2734 11.5781 10.9097 11.5781 10.4609C11.5781 10.0122 11.2144 9.64844 10.7656 9.64844C10.6579 9.64844 10.555 9.66941 10.461 9.70749L8.29051 7.65932C8.17915 7.83097 8.04377 7.98559 7.88915 8.11843ZM11.2734 10.4609C11.2734 10.7414 11.0461 10.9688 10.7656 10.9688C10.4852 10.9688 10.2578 10.7414 10.2578 10.4609C10.2578 10.1805 10.4852 9.95312 10.7656 9.95312C11.0461 9.95312 11.2734 10.1805 11.2734 10.4609Z"
          fill="#AFB1B3"/>
</svg>
