<svg width="40" height="40" viewBox="0 0 16 16" fill="none" xmlns="http://www.w3.org/2000/svg">
    <path d="M6.997 8.857C6.50368 8.72901 6.03958 8.50731 5.63 8.204L4.405 10.041C4.11414 9.98104 3.81357 9.98658 3.52511 10.0572C3.23665 10.1278 2.96753 10.2618 2.73727 10.4493C2.50701 10.6369 2.32138 10.8734 2.19386 11.1416C2.06634 11.4098 2.00012 11.703 2 12C1.99979 12.3132 2.07313 12.622 2.21412 12.9017C2.35511 13.1814 2.55981 13.424 2.81172 13.6101C3.06364 13.7961 3.35573 13.9205 3.66448 13.973C3.97322 14.0255 4.28999 14.0048 4.58927 13.9126C4.88856 13.8203 5.16199 13.659 5.38754 13.4417C5.6131 13.2245 5.78447 12.9572 5.88787 12.6616C5.99126 12.366 6.02378 12.0502 5.98281 11.7397C5.94185 11.4292 5.82853 11.1327 5.652 10.874L6.997 8.857ZM12 10C11.861 10 11.726 10.014 11.595 10.041L10.37 8.204C9.965 8.504 9.504 8.726 9.003 8.857L10.348 10.874C10.0965 11.2432 9.97586 11.6859 10.0052 12.1316C10.0346 12.5773 10.2124 13.0004 10.5102 13.3333C10.8079 13.6662 11.2086 13.8899 11.6483 13.9687C12.088 14.0474 12.5414 13.9767 12.9362 13.7678C13.331 13.5589 13.6446 13.2239 13.8268 12.8161C14.0091 12.4083 14.0496 11.9512 13.9419 11.5177C13.8342 11.0842 13.5845 10.6993 13.2325 10.4242C12.8806 10.1491 12.4467 9.9998 12 10ZM8 2C7.20435 2 6.44129 2.31607 5.87868 2.87868C5.31607 3.44129 5 4.20435 5 5C5 5.79565 5.31607 6.55871 5.87868 7.12132C6.44129 7.68393 7.20435 8 8 8C8.79565 8 9.55871 7.68393 10.1213 7.12132C10.6839 6.55871 11 5.79565 11 5C11 4.20435 10.6839 3.44129 10.1213 2.87868C9.55871 2.31607 8.79565 2 8 2ZM8 6.5C7.80295 6.49993 7.60785 6.46106 7.42582 6.38559C7.2438 6.31012 7.07842 6.19954 6.93913 6.06016C6.79985 5.92078 6.68937 5.75533 6.61403 5.57325C6.53868 5.39118 6.49993 5.19605 6.5 4.999C6.50007 4.80195 6.53894 4.60685 6.61441 4.42482C6.68988 4.2428 6.80046 4.07742 6.93984 3.93813C7.07922 3.79884 7.24467 3.68837 7.42675 3.61303C7.60882 3.53768 7.80395 3.49893 8.001 3.499C8.39896 3.49913 8.78056 3.65735 9.06187 3.93884C9.34317 4.22033 9.50113 4.60204 9.501 5C9.50087 5.39796 9.34265 5.77956 9.06116 6.06087C8.77967 6.34217 8.39796 6.50013 8 6.5Z"
          fill="#6C707E"/>
</svg>
