<svg width="16" height="16" viewBox="0 0 16 16" fill="none" xmlns="http://www.w3.org/2000/svg">
    <g clip-path="url(#clip0_3_20)">
        <path fill-rule="evenodd" clip-rule="evenodd"
              d="M10.7644 14.9233L14.0007 12.9017C13.9796 13.3901 13.7959 13.8568 13.4801 14.228L12.1793 14.9686C12.059 14.9892 11.9364 14.9998 11.8127 15H9.5V9.5C9.5 9.30836 9.52417 9.14153 9.56658 9H10.5005C10.2402 9.00023 10 9.20798 10 9.50102V14.4989C10 14.8917 10.4315 15.1313 10.7644 14.9233ZM9.58701 7.14274L9.00274 6.318V2H7.00274V6.318L3.42674 11.367C3.15366 11.7581 3.00581 12.223 3.00274 12.7V12.767C2.99793 13.0887 3.12094 13.3992 3.34478 13.6304C3.56862 13.8616 3.87502 13.9945 4.19674 14H5.12974C4.97031 13.9888 4.81465 13.9463 4.67166 13.8749C4.52868 13.8035 4.4012 13.7046 4.29651 13.5838C4.19182 13.4631 4.11198 13.3228 4.06157 13.1712C4.01116 13.0195 3.99117 12.8594 4.00274 12.7C4.00579 12.2227 4.15364 11.7575 4.42674 11.366L6.10274 9H8V15H4.20274H4.08574C3.7979 14.9859 3.51566 14.9152 3.25515 14.792C2.99465 14.6687 2.76099 14.4953 2.56753 14.2817C2.37408 14.0681 2.22462 13.8185 2.12771 13.5471C2.0308 13.2757 1.98834 12.9878 2.00274 12.7C2.00554 12.0205 2.21478 11.3579 2.60274 10.8L6.00274 6V2H5.50274C5.37013 2 5.24296 1.94732 5.14919 1.85355C5.05542 1.75979 5.00274 1.63261 5.00274 1.5C5.00274 1.36739 5.05542 1.24021 5.14919 1.14645C5.24296 1.05268 5.37013 1 5.50274 1H10.5027C10.6354 1 10.7625 1.05268 10.8563 1.14645C10.9501 1.24021 11.0027 1.36739 11.0027 1.5C11.0027 1.63261 10.9501 1.75979 10.8563 1.85355C10.7625 1.94732 10.6354 2 10.5027 2H10.0027V6L10.7094 6.99761C10.3261 6.94756 9.94305 6.99902 9.58701 7.14274ZM10.5773 8.54068L12.5297 9.5674L13.3072 10.6651L10.7644 9.07667C10.6802 9.02405 10.5896 9.00008 10.5014 9H10.9027L10.5773 8.54068Z"
              fill="#6E6E6E"/>
        <path fill-rule="evenodd" clip-rule="evenodd"
              d="M9 9.50231C9 8.32463 10.2948 7.60635 11.2936 8.2299L15.2944 10.7276C16.2352 11.3149 16.2352 12.6851 15.2944 13.2724L11.2936 15.7701C10.2948 16.3937 9 15.6754 9 14.4977V9.50231ZM10.7642 9.07817C10.4313 8.87032 9.99972 9.10975 9.99972 9.50231V14.4977C9.99972 14.8902 10.4313 15.1296 10.7642 14.9218L14.7651 12.4241C15.0787 12.2284 15.0787 11.7716 14.7651 11.5759L10.7642 9.07817Z"
              fill="#208A3C"/>
    </g>
    <defs>
        <clipPath id="clip0_3_20">
            <rect width="16" height="16" fill="white"/>
        </clipPath>
    </defs>
</svg>
