<svg width="16" height="16" viewBox="0 0 16 16" fill="none" xmlns="http://www.w3.org/2000/svg">
    <path d="M13.4 10.8L10 6V2H10.5C10.6326 2 10.7598 1.94732 10.8535 1.85355C10.9473 1.75979 11 1.63261 11 1.5C11 1.36739 10.9473 1.24021 10.8535 1.14645C10.7598 1.05268 10.6326 1 10.5 1H5.5C5.36739 1 5.24021 1.05268 5.14644 1.14645C5.05267 1.24021 5 1.36739 5 1.5C5 1.63261 5.05267 1.75979 5.14644 1.85355C5.24021 1.94732 5.36739 2 5.5 2H6V6L2.6 10.8C2.21204 11.3579 2.00279 12.0205 2 12.7C1.98559 12.9878 2.02806 13.2757 2.12497 13.5471C2.22188 13.8185 2.37133 14.0681 2.56479 14.2817C2.75824 14.4953 2.9919 14.6687 3.2524 14.792C3.51291 14.9152 3.79515 14.9859 4.083 15C4.12166 15 4.16066 15 4.2 15H11.81C12.3911 14.9992 12.9481 14.7678 13.3587 14.3566C13.7694 13.9454 14 13.3881 14 12.807C14 12.771 14 12.736 14 12.7C13.9972 12.0205 13.788 11.3579 13.4 10.8ZM6.1 9L4.424 11.366C4.1509 11.7575 4.00305 12.2227 4 12.7C3.98842 12.8594 4.00842 13.0195 4.05883 13.1712C4.10923 13.3228 4.18907 13.4631 4.29376 13.5838C4.39845 13.7046 4.52594 13.8035 4.66892 13.8749C4.8119 13.9463 4.96756 13.9888 5.127 14C5.149 14 5.17199 14 5.19399 14H4.19399C3.87227 13.9945 3.56587 13.8616 3.34203 13.6304C3.11819 13.3992 2.99518 13.0887 3 12.767C3 12.745 3 12.722 3 12.7C3.00306 12.223 3.15092 11.7581 3.424 11.367L7 6.318V2H9V6.318L10.9 9H6.1Z"
          fill="#AFB1B3"/>
</svg>
