<svg width="16" height="16" viewBox="0 0 16 16" fill="none" xmlns="http://www.w3.org/2000/svg">
    <path d="M13.4027 10.8L10.0027 6V2H10.5027C10.6354 2 10.7625 1.94732 10.8563 1.85355C10.9501 1.75979 11.0027 1.63261 11.0027 1.5C11.0027 1.36739 10.9501 1.24021 10.8563 1.14645C10.7625 1.05268 10.6354 1 10.5027 1H5.50274C5.37013 1 5.24296 1.05268 5.14919 1.14645C5.05542 1.24021 5.00274 1.36739 5.00274 1.5C5.00274 1.63261 5.05542 1.75979 5.14919 1.85355C5.24296 1.94732 5.37013 2 5.50274 2H6.00274V6L2.60274 10.8C2.21478 11.3579 2.00554 12.0205 2.00274 12.7C1.98834 12.9878 2.0308 13.2757 2.12771 13.5471C2.22462 13.8185 2.37408 14.0681 2.56753 14.2817C2.76099 14.4953 2.99465 14.6687 3.25515 14.792C3.51566 14.9152 3.7979 14.9859 4.08574 15C4.12441 15 4.16341 15 4.20274 15H11.8127C12.3938 14.9992 12.9509 14.7678 13.3615 14.3566C13.7721 13.9454 14.0027 13.3881 14.0027 12.807C14.0027 12.771 14.0027 12.736 14.0027 12.7C13.9999 12.0205 13.7907 11.3579 13.4027 10.8ZM6.10274 9L4.42674 11.366C4.15364 11.7575 4.00579 12.2227 4.00274 12.7C3.99117 12.8594 4.01116 13.0195 4.06157 13.1712C4.11198 13.3228 4.19182 13.4631 4.29651 13.5838C4.4012 13.7046 4.52868 13.8035 4.67166 13.8749C4.81465 13.9463 4.97031 13.9888 5.12974 14C5.15174 14 5.17474 14 5.19674 14H4.19674C3.87502 13.9945 3.56862 13.8616 3.34478 13.6304C3.12094 13.3992 2.99793 13.0887 3.00274 12.767C3.00274 12.745 3.00274 12.722 3.00274 12.7C3.00581 12.223 3.15366 11.7581 3.42674 11.367L7.00274 6.318V2H9.00274V6.318L10.9027 9H6.10274Z"
          fill="#6E6E6E"/>
</svg>
