<svg width="16" height="16" viewBox="0 0 16 16" fill="none" xmlns="http://www.w3.org/2000/svg">
    <g clip-path="url(#clip0_20_125)">
        <path d="M11 12V11H14V12H11Z" fill="#AFB1B3"/>
        <path d="M11 12V9H12V12H11Z" fill="#AFB1B3"/>
        <path fill-rule="evenodd" clip-rule="evenodd"
              d="M15 11.5C15 13.433 13.433 15 11.5 15C9.567 15 8 13.433 8 11.5C8 9.567 9.567 8 11.5 8C13.433 8 15 9.567 15 11.5ZM16 11.5C16 9.01472 13.9853 7 11.5 7C9.01472 7 7 9.01472 7 11.5C7 13.9853 9.01472 16 11.5 16C13.9853 16 16 13.9853 16 11.5Z"
              fill="#AFB1B3"/>
        <path fill-rule="evenodd" clip-rule="evenodd"
              d="M14 12.9167V12.5775C14.0017 12.6183 14.0026 12.6591 14.0027 12.7V12.807C14.0027 12.8437 14.0018 12.8802 14 12.9167ZM8 13.9602C7.50998 13.2643 7.22222 12.4158 7.22222 11.5C7.22222 10.5842 7.50998 9.73568 8 9.03983V13.9602ZM10.1254 6.17317L10.0027 6V2H10.5027C10.6354 2 10.7625 1.94732 10.8563 1.85355C10.9501 1.75979 11.0027 1.63261 11.0027 1.5C11.0027 1.36739 10.9501 1.24021 10.8563 1.14645C10.7625 1.05268 10.6354 1 10.5027 1H5.50274C5.37013 1 5.24296 1.05268 5.14919 1.14645C5.05542 1.24021 5.00274 1.36739 5.00274 1.5C5.00274 1.63261 5.05542 1.75979 5.14919 1.85355C5.24296 1.94732 5.37013 2 5.50274 2H6.00274V6L2.60274 10.8C2.21478 11.3579 2.00554 12.0205 2.00274 12.7C1.98834 12.9878 2.0308 13.2757 2.12771 13.5471C2.22462 13.8185 2.37408 14.0681 2.56753 14.2817C2.76099 14.4953 2.99465 14.6687 3.25515 14.792C3.51566 14.9152 3.7979 14.9859 4.08574 15H4.20274H7.25716C6.47182 14.0491 6 12.8296 6 11.5C6 10.5998 6.21628 9.75007 6.59971 9H6.10274L4.42674 11.366C4.15364 11.7575 4.00579 12.2227 4.00274 12.7C3.99117 12.8594 4.01116 13.0195 4.06157 13.1712C4.11198 13.3228 4.19182 13.4631 4.29651 13.5838C4.4012 13.7046 4.52868 13.8035 4.67166 13.8749C4.81465 13.9463 4.97031 13.9888 5.12974 14H4.19674C3.87502 13.9945 3.56862 13.8616 3.34478 13.6304C3.12094 13.3992 2.99793 13.0887 3.00274 12.767V12.7C3.00581 12.223 3.15366 11.7581 3.42674 11.367L7.00274 6.318V2H9.00274V6.318L9.15001 6.52589C9.46031 6.37903 9.78654 6.26036 10.1254 6.17317ZM9.87084 7.54338C10.1952 7.40969 10.5396 7.31471 10.8982 7.26422L11.4194 8H10.1943L9.87084 7.54338Z"
              fill="#AFB1B3"/>
    </g>
    <defs>
        <clipPath id="clip0_20_125">
            <rect width="16" height="16" fill="white"/>
        </clipPath>
    </defs>
</svg>
