<svg width="16" height="16" viewBox="0 0 16 16" fill="none" xmlns="http://www.w3.org/2000/svg">
    <path d="M14 8.586L9.414 4L13.414 0H12L8 4L5 10L1 14L2 15H6L8 13L14 10L16 8V6.586L14 8.586ZM5.586 14H2.414L6 10.414L7.586 12L5.586 14ZM6.886 10.469L6.217 9.8L8.607 5.018L9.274 5.685L6.886 10.469Z"
          fill="#6E6E6E"/>
    <path d="M5.586 14H2.414L6 10.414L7.586 12L5.586 14Z" fill="#ac6ddf"/>
    <path d="M2.5 3C2.59889 3 2.69556 2.97068 2.77779 2.91573C2.86001 2.86079 2.9241 2.7827 2.96194 2.69134C2.99978 2.59998 3.00969 2.49945 2.99039 2.40245C2.9711 2.30546 2.92348 2.21637 2.85355 2.14645C2.78363 2.07652 2.69454 2.0289 2.59755 2.00961C2.50055 1.99031 2.40002 2.00022 2.30866 2.03806C2.2173 2.0759 2.13921 2.13999 2.08427 2.22221C2.02932 2.30444 2 2.40111 2 2.5C2 2.63261 2.05268 2.75979 2.14645 2.85355C2.24022 2.94732 2.36739 3 2.5 3ZM1.5 3C1.40111 3 1.30444 3.02932 1.22222 3.08427C1.13999 3.13921 1.0759 3.2173 1.03806 3.30866C1.00022 3.40002 0.990315 3.50055 1.00961 3.59755C1.0289 3.69454 1.07652 3.78363 1.14645 3.85355C1.21637 3.92348 1.30546 3.9711 1.40246 3.99039C1.49945 4.00969 1.59998 3.99978 1.69134 3.96194C1.78271 3.9241 1.86079 3.86001 1.91574 3.77779C1.97068 3.69556 2 3.59889 2 3.5C2 3.36739 1.94732 3.24021 1.85355 3.14645C1.75979 3.05268 1.63261 3 1.5 3ZM2.5 5C2.59889 5 2.69556 4.97068 2.77779 4.91573C2.86001 4.86079 2.9241 4.7827 2.96194 4.69134C2.99978 4.59998 3.00969 4.49945 2.99039 4.40245C2.9711 4.30546 2.92348 4.21637 2.85355 4.14645C2.78363 4.07652 2.69454 4.0289 2.59755 4.00961C2.50055 3.99031 2.40002 4.00022 2.30866 4.03806C2.2173 4.0759 2.13921 4.13999 2.08427 4.22221C2.02932 4.30444 2 4.40111 2 4.5C2 4.63261 2.05268 4.75979 2.14645 4.85355C2.24022 4.94732 2.36739 5 2.5 5ZM1.5 5C1.40111 5 1.30444 5.02932 1.22222 5.08427C1.13999 5.13921 1.0759 5.2173 1.03806 5.30866C1.00022 5.40002 0.990315 5.50055 1.00961 5.59755C1.0289 5.69454 1.07652 5.78363 1.14645 5.85355C1.21637 5.92348 1.30546 5.9711 1.40246 5.99039C1.49945 6.00969 1.59998 5.99978 1.69134 5.96194C1.78271 5.9241 1.86079 5.86001 1.91574 5.77779C1.97068 5.69556 2 5.59889 2 5.5C2 5.36739 1.94732 5.24021 1.85355 5.14645C1.75979 5.05268 1.63261 5 1.5 5ZM2.5 7C2.59889 7 2.69556 6.97068 2.77779 6.91573C2.86001 6.86079 2.9241 6.7827 2.96194 6.69134C2.99978 6.59998 3.00969 6.49945 2.99039 6.40245C2.9711 6.30546 2.92348 6.21637 2.85355 6.14645C2.78363 6.07652 2.69454 6.0289 2.59755 6.00961C2.50055 5.99031 2.40002 6.00022 2.30866 6.03806C2.2173 6.0759 2.13921 6.13999 2.08427 6.22221C2.02932 6.30444 2 6.40111 2 6.5C2 6.63261 2.05268 6.75979 2.14645 6.85355C2.24022 6.94732 2.36739 7 2.5 7ZM1.5 7C1.40111 7 1.30444 7.02932 1.22222 7.08427C1.13999 7.13921 1.0759 7.2173 1.03806 7.30866C1.00022 7.40002 0.990315 7.50055 1.00961 7.59755C1.0289 7.69454 1.07652 7.78363 1.14645 7.85355C1.21637 7.92348 1.30546 7.9711 1.40246 7.99039C1.49945 8.00969 1.59998 7.99978 1.69134 7.96194C1.78271 7.9241 1.86079 7.86001 1.91574 7.77779C1.97068 7.69556 2 7.59889 2 7.5C2 7.36739 1.94732 7.24021 1.85355 7.14645C1.75979 7.05268 1.63261 7 1.5 7ZM2.5 9C2.59889 9 2.69556 8.97068 2.77779 8.91574C2.86001 8.86079 2.9241 8.7827 2.96194 8.69134C2.99978 8.59998 3.00969 8.49944 2.99039 8.40245C2.9711 8.30546 2.92348 8.21637 2.85355 8.14645C2.78363 8.07652 2.69454 8.0289 2.59755 8.00961C2.50055 7.99031 2.40002 8.00022 2.30866 8.03806C2.2173 8.0759 2.13921 8.13999 2.08427 8.22221C2.02932 8.30444 2 8.40111 2 8.5C2 8.63261 2.05268 8.75979 2.14645 8.85355C2.24022 8.94732 2.36739 9 2.5 9ZM1.5 9C1.40111 9 1.30444 9.02932 1.22222 9.08426C1.13999 9.13921 1.0759 9.2173 1.03806 9.30866C1.00022 9.40002 0.990315 9.50056 1.00961 9.59755C1.0289 9.69454 1.07652 9.78363 1.14645 9.85355C1.21637 9.92348 1.30546 9.9711 1.40246 9.99039C1.49945 10.0097 1.59998 9.99978 1.69134 9.96194C1.78271 9.9241 1.86079 9.86001 1.91574 9.77779C1.97068 9.69556 2 9.59889 2 9.5C2 9.36739 1.94732 9.24021 1.85355 9.14645C1.75979 9.05268 1.63261 9 1.5 9ZM2.5 11C2.59889 11 2.69556 10.9707 2.77779 10.9157C2.86001 10.8608 2.9241 10.7827 2.96194 10.6913C2.99978 10.6 3.00969 10.4994 2.99039 10.4025C2.9711 10.3055 2.92348 10.2164 2.85355 10.1464C2.78363 10.0765 2.69454 10.0289 2.59755 10.0096C2.50055 9.99031 2.40002 10.0002 2.30866 10.0381C2.2173 10.0759 2.13921 10.14 2.08427 10.2222C2.02932 10.3044 2 10.4011 2 10.5C2 10.6326 2.05268 10.7598 2.14645 10.8536C2.24022 10.9473 2.36739 11 2.5 11ZM1.5 11C1.40111 11 1.30444 11.0293 1.22222 11.0843C1.13999 11.1392 1.0759 11.2173 1.03806 11.3087C1.00022 11.4 0.990315 11.5006 1.00961 11.5975C1.0289 11.6945 1.07652 11.7836 1.14645 11.8536C1.21637 11.9235 1.30546 11.9711 1.40246 11.9904C1.49945 12.0097 1.59998 11.9998 1.69134 11.9619C1.78271 11.9241 1.86079 11.86 1.91574 11.7778C1.97068 11.6956 2 11.5989 2 11.5C2 11.3674 1.94732 11.2402 1.85355 11.1464C1.75979 11.0527 1.63261 11 1.5 11ZM1.5 13C1.40111 13 1.30444 13.0293 1.22222 13.0843C1.13999 13.1392 1.0759 13.2173 1.03806 13.3087C1.00022 13.4 0.990315 13.5006 1.00961 13.5975C1.0289 13.6945 1.07652 13.7836 1.14645 13.8536C1.21637 13.9235 1.30546 13.9711 1.40246 13.9904C1.49945 14.0097 1.59998 13.9998 1.69134 13.9619C1.78271 13.9241 1.86079 13.86 1.91574 13.7778C1.97068 13.6956 2 13.5989 2 13.5C2 13.3674 1.94732 13.2402 1.85355 13.1464C1.75979 13.0527 1.63261 13 1.5 13ZM2.5 13C2.59889 13 2.69556 12.9707 2.77779 12.9157C2.86001 12.8608 2.9241 12.7827 2.96194 12.6913C2.99978 12.6 3.00969 12.4994 2.99039 12.4025C2.9711 12.3055 2.92348 12.2164 2.85355 12.1464C2.78363 12.0765 2.69454 12.0289 2.59755 12.0096C2.50055 11.9903 2.40002 12.0002 2.30866 12.0381C2.2173 12.0759 2.13921 12.14 2.08427 12.2222C2.02932 12.3044 2 12.4011 2 12.5C2 12.6326 2.05268 12.7598 2.14645 12.8536C2.24022 12.9473 2.36739 13 2.5 13ZM3.5 1C3.40111 1 3.30444 1.02932 3.22222 1.08427C3.13999 1.13921 3.0759 1.2173 3.03806 1.30866C3.00022 1.40002 2.99031 1.50055 3.00961 1.59755C3.0289 1.69454 3.07652 1.78363 3.14645 1.85355C3.21637 1.92348 3.30546 1.9711 3.40246 1.99039C3.49945 2.00969 3.59998 1.99978 3.69134 1.96194C3.7827 1.9241 3.86079 1.86001 3.91574 1.77779C3.97068 1.69556 4 1.59889 4 1.5C4 1.36739 3.94732 1.24021 3.85355 1.14645C3.75979 1.05268 3.63261 1 3.5 1ZM4.5 3C4.59889 3 4.69556 2.97068 4.77779 2.91573C4.86001 2.86079 4.9241 2.7827 4.96194 2.69134C4.99978 2.59998 5.00969 2.49945 4.99039 2.40245C4.9711 2.30546 4.92348 2.21637 4.85355 2.14645C4.78363 2.07652 4.69454 2.0289 4.59755 2.00961C4.50055 1.99031 4.40002 2.00022 4.30866 2.03806C4.2173 2.0759 4.13921 2.13999 4.08427 2.22221C4.02932 2.30444 4 2.40111 4 2.5C4 2.63261 4.05268 2.75979 4.14645 2.85355C4.24022 2.94732 4.36739 3 4.5 3ZM3.5 3C3.40111 3 3.30444 3.02932 3.22222 3.08427C3.13999 3.13921 3.0759 3.2173 3.03806 3.30866C3.00022 3.40002 2.99031 3.50055 3.00961 3.59755C3.0289 3.69454 3.07652 3.78363 3.14645 3.85355C3.21637 3.92348 3.30546 3.9711 3.40246 3.99039C3.49945 4.00969 3.59998 3.99978 3.69134 3.96194C3.7827 3.9241 3.86079 3.86001 3.91574 3.77779C3.97068 3.69556 4 3.59889 4 3.5C4 3.36739 3.94732 3.24021 3.85355 3.14645C3.75979 3.05268 3.63261 3 3.5 3ZM4.5 5C4.59889 5 4.69556 4.97068 4.77779 4.91573C4.86001 4.86079 4.9241 4.7827 4.96194 4.69134C4.99978 4.59998 5.00969 4.49945 4.99039 4.40245C4.9711 4.30546 4.92348 4.21637 4.85355 4.14645C4.78363 4.07652 4.69454 4.0289 4.59755 4.00961C4.50055 3.99031 4.40002 4.00022 4.30866 4.03806C4.2173 4.0759 4.13921 4.13999 4.08427 4.22221C4.02932 4.30444 4 4.40111 4 4.5C4 4.63261 4.05268 4.75979 4.14645 4.85355C4.24022 4.94732 4.36739 5 4.5 5ZM3.5 5C3.40111 5 3.30444 5.02932 3.22222 5.08427C3.13999 5.13921 3.0759 5.2173 3.03806 5.30866C3.00022 5.40002 2.99031 5.50055 3.00961 5.59755C3.0289 5.69454 3.07652 5.78363 3.14645 5.85355C3.21637 5.92348 3.30546 5.9711 3.40246 5.99039C3.49945 6.00969 3.59998 5.99978 3.69134 5.96194C3.7827 5.9241 3.86079 5.86001 3.91574 5.77779C3.97068 5.69556 4 5.59889 4 5.5C4 5.36739 3.94732 5.24021 3.85355 5.14645C3.75979 5.05268 3.63261 5 3.5 5ZM4.5 7C4.59889 7 4.69556 6.97068 4.77779 6.91573C4.86001 6.86079 4.9241 6.7827 4.96194 6.69134C4.99978 6.59998 5.00969 6.49945 4.99039 6.40245C4.9711 6.30546 4.92348 6.21637 4.85355 6.14645C4.78363 6.07652 4.69454 6.0289 4.59755 6.00961C4.50055 5.99031 4.40002 6.00022 4.30866 6.03806C4.2173 6.0759 4.13921 6.13999 4.08427 6.22221C4.02932 6.30444 4 6.40111 4 6.5C4 6.63261 4.05268 6.75979 4.14645 6.85355C4.24022 6.94732 4.36739 7 4.5 7ZM3.5 7C3.40111 7 3.30444 7.02932 3.22222 7.08427C3.13999 7.13921 3.0759 7.2173 3.03806 7.30866C3.00022 7.40002 2.99031 7.50055 3.00961 7.59755C3.0289 7.69454 3.07652 7.78363 3.14645 7.85355C3.21637 7.92348 3.30546 7.9711 3.40246 7.99039C3.49945 8.00969 3.59998 7.99978 3.69134 7.96194C3.7827 7.9241 3.86079 7.86001 3.91574 7.77779C3.97068 7.69556 4 7.59889 4 7.5C4 7.36739 3.94732 7.24021 3.85355 7.14645C3.75979 7.05268 3.63261 7 3.5 7ZM4.5 9C4.59889 9 4.69556 8.97068 4.77779 8.91574C4.86001 8.86079 4.9241 8.7827 4.96194 8.69134C4.99978 8.59998 5.00969 8.49944 4.99039 8.40245C4.9711 8.30546 4.92348 8.21637 4.85355 8.14645C4.78363 8.07652 4.69454 8.0289 4.59755 8.00961C4.50055 7.99031 4.40002 8.00022 4.30866 8.03806C4.2173 8.0759 4.13921 8.13999 4.08427 8.22221C4.02932 8.30444 4 8.40111 4 8.5C4 8.63261 4.05268 8.75979 4.14645 8.85355C4.24022 8.94732 4.36739 9 4.5 9ZM3.5 9C3.40111 9 3.30444 9.02932 3.22222 9.08426C3.13999 9.13921 3.0759 9.2173 3.03806 9.30866C3.00022 9.40002 2.99031 9.50056 3.00961 9.59755C3.0289 9.69454 3.07652 9.78363 3.14645 9.85355C3.21637 9.92348 3.30546 9.9711 3.40246 9.99039C3.49945 10.0097 3.59998 9.99978 3.69134 9.96194C3.7827 9.9241 3.86079 9.86001 3.91574 9.77779C3.97068 9.69556 4 9.59889 4 9.5C4 9.36739 3.94732 9.24021 3.85355 9.14645C3.75979 9.05268 3.63261 9 3.5 9ZM4.5 11C4.59889 11 4.69556 10.9707 4.77779 10.9157C4.86001 10.8608 4.9241 10.7827 4.96194 10.6913C4.99978 10.6 5.00969 10.4994 4.99039 10.4025C4.9711 10.3055 4.92348 10.2164 4.85355 10.1464C4.78363 10.0765 4.69454 10.0289 4.59755 10.0096C4.50055 9.99031 4.40002 10.0002 4.30866 10.0381C4.2173 10.0759 4.13921 10.14 4.08427 10.2222C4.02932 10.3044 4 10.4011 4 10.5C4 10.6326 4.05268 10.7598 4.14645 10.8536C4.24022 10.9473 4.36739 11 4.5 11ZM3.5 11C3.40111 11 3.30444 11.0293 3.22222 11.0843C3.13999 11.1392 3.0759 11.2173 3.03806 11.3087C3.00022 11.4 2.99031 11.5006 3.00961 11.5975C3.0289 11.6945 3.07652 11.7836 3.14645 11.8536C3.21637 11.9235 3.30546 11.9711 3.40246 11.9904C3.49945 12.0097 3.59998 11.9998 3.69134 11.9619C3.7827 11.9241 3.86079 11.86 3.91574 11.7778C3.97068 11.6956 4 11.5989 4 11.5C4 11.3674 3.94732 11.2402 3.85355 11.1464C3.75979 11.0527 3.63261 11 3.5 11Z"
          fill="#6E6E6E"/>
</svg>
