<svg width="16" height="16" viewBox="0 0 16 16" fill="none" xmlns="http://www.w3.org/2000/svg">
    <path d="M2 8.586L6.586 4L2.586 0H4L8 4L11 10L15 14L14 15H10L8 13L2 10L0 8V6.586L2 8.586ZM10.414 14H13.586L10 10.414L8.414 12L10.414 14ZM9.114 10.469L9.783 9.8L7.393 5.018L6.726 5.685L9.114 10.469Z"
          fill="#6E6E6E"/>
    <path d="M10.414 14H13.586L10 10.414L8.414 12L10.414 14Z" fill="#a0df6d"/>
    <path d="M13.5 3C13.4011 3 13.3044 2.97068 13.2222 2.91573C13.14 2.86079 13.0759 2.7827 13.0381 2.69134C13.0002 2.59998 12.9903 2.49945 13.0096 2.40245C13.0289 2.30546 13.0765 2.21637 13.1464 2.14645C13.2164 2.07652 13.3055 2.0289 13.4025 2.00961C13.4994 1.99031 13.6 2.00022 13.6913 2.03806C13.7827 2.0759 13.8608 2.13999 13.9157 2.22221C13.9707 2.30444 14 2.40111 14 2.5C14 2.63261 13.9473 2.75979 13.8536 2.85355C13.7598 2.94732 13.6326 3 13.5 3ZM14.5 3C14.5989 3 14.6956 3.02932 14.7778 3.08427C14.86 3.13921 14.9241 3.2173 14.9619 3.30866C14.9998 3.40002 15.0097 3.50055 14.9904 3.59755C14.9711 3.69454 14.9235 3.78363 14.8536 3.85355C14.7836 3.92348 14.6945 3.9711 14.5975 3.99039C14.5006 4.00969 14.4 3.99978 14.3087 3.96194C14.2173 3.9241 14.1392 3.86001 14.0843 3.77779C14.0293 3.69556 14 3.59889 14 3.5C14 3.36739 14.0527 3.24021 14.1464 3.14645C14.2402 3.05268 14.3674 3 14.5 3ZM13.5 5C13.4011 5 13.3044 4.97068 13.2222 4.91573C13.14 4.86079 13.0759 4.7827 13.0381 4.69134C13.0002 4.59998 12.9903 4.49945 13.0096 4.40245C13.0289 4.30546 13.0765 4.21637 13.1464 4.14645C13.2164 4.07652 13.3055 4.0289 13.4025 4.00961C13.4994 3.99031 13.6 4.00022 13.6913 4.03806C13.7827 4.0759 13.8608 4.13999 13.9157 4.22221C13.9707 4.30444 14 4.40111 14 4.5C14 4.63261 13.9473 4.75979 13.8536 4.85355C13.7598 4.94732 13.6326 5 13.5 5ZM14.5 5C14.5989 5 14.6956 5.02932 14.7778 5.08427C14.86 5.13921 14.9241 5.2173 14.9619 5.30866C14.9998 5.40002 15.0097 5.50055 14.9904 5.59755C14.9711 5.69454 14.9235 5.78363 14.8536 5.85355C14.7836 5.92348 14.6945 5.9711 14.5975 5.99039C14.5006 6.00969 14.4 5.99978 14.3087 5.96194C14.2173 5.9241 14.1392 5.86001 14.0843 5.77779C14.0293 5.69556 14 5.59889 14 5.5C14 5.36739 14.0527 5.24021 14.1464 5.14645C14.2402 5.05268 14.3674 5 14.5 5ZM13.5 7C13.4011 7 13.3044 6.97068 13.2222 6.91573C13.14 6.86079 13.0759 6.7827 13.0381 6.69134C13.0002 6.59998 12.9903 6.49945 13.0096 6.40245C13.0289 6.30546 13.0765 6.21637 13.1464 6.14645C13.2164 6.07652 13.3055 6.0289 13.4025 6.00961C13.4994 5.99031 13.6 6.00022 13.6913 6.03806C13.7827 6.0759 13.8608 6.13999 13.9157 6.22221C13.9707 6.30444 14 6.40111 14 6.5C14 6.63261 13.9473 6.75979 13.8536 6.85355C13.7598 6.94732 13.6326 7 13.5 7ZM14.5 7C14.5989 7 14.6956 7.02932 14.7778 7.08427C14.86 7.13921 14.9241 7.2173 14.9619 7.30866C14.9998 7.40002 15.0097 7.50055 14.9904 7.59755C14.9711 7.69454 14.9235 7.78363 14.8536 7.85355C14.7836 7.92348 14.6945 7.9711 14.5975 7.99039C14.5006 8.00969 14.4 7.99978 14.3087 7.96194C14.2173 7.9241 14.1392 7.86001 14.0843 7.77779C14.0293 7.69556 14 7.59889 14 7.5C14 7.36739 14.0527 7.24021 14.1464 7.14645C14.2402 7.05268 14.3674 7 14.5 7ZM13.5 9C13.4011 9 13.3044 8.97068 13.2222 8.91574C13.14 8.86079 13.0759 8.7827 13.0381 8.69134C13.0002 8.59998 12.9903 8.49944 13.0096 8.40245C13.0289 8.30546 13.0765 8.21637 13.1464 8.14645C13.2164 8.07652 13.3055 8.0289 13.4025 8.00961C13.4994 7.99031 13.6 8.00022 13.6913 8.03806C13.7827 8.0759 13.8608 8.13999 13.9157 8.22221C13.9707 8.30444 14 8.40111 14 8.5C14 8.63261 13.9473 8.75979 13.8536 8.85355C13.7598 8.94732 13.6326 9 13.5 9ZM14.5 9C14.5989 9 14.6956 9.02932 14.7778 9.08426C14.86 9.13921 14.9241 9.2173 14.9619 9.30866C14.9998 9.40002 15.0097 9.50056 14.9904 9.59755C14.9711 9.69454 14.9235 9.78363 14.8536 9.85355C14.7836 9.92348 14.6945 9.9711 14.5975 9.99039C14.5006 10.0097 14.4 9.99978 14.3087 9.96194C14.2173 9.9241 14.1392 9.86001 14.0843 9.77779C14.0293 9.69556 14 9.59889 14 9.5C14 9.36739 14.0527 9.24021 14.1464 9.14645C14.2402 9.05268 14.3674 9 14.5 9ZM13.5 11C13.4011 11 13.3044 10.9707 13.2222 10.9157C13.14 10.8608 13.0759 10.7827 13.0381 10.6913C13.0002 10.6 12.9903 10.4994 13.0096 10.4025C13.0289 10.3055 13.0765 10.2164 13.1464 10.1464C13.2164 10.0765 13.3055 10.0289 13.4025 10.0096C13.4994 9.99031 13.6 10.0002 13.6913 10.0381C13.7827 10.0759 13.8608 10.14 13.9157 10.2222C13.9707 10.3044 14 10.4011 14 10.5C14 10.6326 13.9473 10.7598 13.8536 10.8536C13.7598 10.9473 13.6326 11 13.5 11ZM14.5 11C14.5989 11 14.6956 11.0293 14.7778 11.0843C14.86 11.1392 14.9241 11.2173 14.9619 11.3087C14.9998 11.4 15.0097 11.5006 14.9904 11.5975C14.9711 11.6945 14.9235 11.7836 14.8536 11.8536C14.7836 11.9235 14.6945 11.9711 14.5975 11.9904C14.5006 12.0097 14.4 11.9998 14.3087 11.9619C14.2173 11.9241 14.1392 11.86 14.0843 11.7778C14.0293 11.6956 14 11.5989 14 11.5C14 11.3674 14.0527 11.2402 14.1464 11.1464C14.2402 11.0527 14.3674 11 14.5 11ZM14.5 13C14.5989 13 14.6956 13.0293 14.7778 13.0843C14.86 13.1392 14.9241 13.2173 14.9619 13.3087C14.9998 13.4 15.0097 13.5006 14.9904 13.5975C14.9711 13.6945 14.9235 13.7836 14.8536 13.8536C14.7836 13.9235 14.6945 13.9711 14.5975 13.9904C14.5006 14.0097 14.4 13.9998 14.3087 13.9619C14.2173 13.9241 14.1392 13.86 14.0843 13.7778C14.0293 13.6956 14 13.5989 14 13.5C14 13.3674 14.0527 13.2402 14.1464 13.1464C14.2402 13.0527 14.3674 13 14.5 13ZM13.5 13C13.4011 13 13.3044 12.9707 13.2222 12.9157C13.14 12.8608 13.0759 12.7827 13.0381 12.6913C13.0002 12.6 12.9903 12.4994 13.0096 12.4025C13.0289 12.3055 13.0765 12.2164 13.1464 12.1464C13.2164 12.0765 13.3055 12.0289 13.4025 12.0096C13.4994 11.9903 13.6 12.0002 13.6913 12.0381C13.7827 12.0759 13.8608 12.14 13.9157 12.2222C13.9707 12.3044 14 12.4011 14 12.5C14 12.6326 13.9473 12.7598 13.8536 12.8536C13.7598 12.9473 13.6326 13 13.5 13ZM12.5 1C12.5989 1 12.6956 1.02932 12.7778 1.08427C12.86 1.13921 12.9241 1.2173 12.9619 1.30866C12.9998 1.40002 13.0097 1.50055 12.9904 1.59755C12.9711 1.69454 12.9235 1.78363 12.8536 1.85355C12.7836 1.92348 12.6945 1.9711 12.5975 1.99039C12.5006 2.00969 12.4 1.99978 12.3087 1.96194C12.2173 1.9241 12.1392 1.86001 12.0843 1.77779C12.0293 1.69556 12 1.59889 12 1.5C12 1.36739 12.0527 1.24021 12.1464 1.14645C12.2402 1.05268 12.3674 1 12.5 1ZM11.5 3C11.4011 3 11.3044 2.97068 11.2222 2.91573C11.14 2.86079 11.0759 2.7827 11.0381 2.69134C11.0002 2.59998 10.9903 2.49945 11.0096 2.40245C11.0289 2.30546 11.0765 2.21637 11.1464 2.14645C11.2164 2.07652 11.3055 2.0289 11.4025 2.00961C11.4994 1.99031 11.6 2.00022 11.6913 2.03806C11.7827 2.0759 11.8608 2.13999 11.9157 2.22221C11.9707 2.30444 12 2.40111 12 2.5C12 2.63261 11.9473 2.75979 11.8536 2.85355C11.7598 2.94732 11.6326 3 11.5 3ZM12.5 3C12.5989 3 12.6956 3.02932 12.7778 3.08427C12.86 3.13921 12.9241 3.2173 12.9619 3.30866C12.9998 3.40002 13.0097 3.50055 12.9904 3.59755C12.9711 3.69454 12.9235 3.78363 12.8536 3.85355C12.7836 3.92348 12.6945 3.9711 12.5975 3.99039C12.5006 4.00969 12.4 3.99978 12.3087 3.96194C12.2173 3.9241 12.1392 3.86001 12.0843 3.77779C12.0293 3.69556 12 3.59889 12 3.5C12 3.36739 12.0527 3.24021 12.1464 3.14645C12.2402 3.05268 12.3674 3 12.5 3ZM11.5 5C11.4011 5 11.3044 4.97068 11.2222 4.91573C11.14 4.86079 11.0759 4.7827 11.0381 4.69134C11.0002 4.59998 10.9903 4.49945 11.0096 4.40245C11.0289 4.30546 11.0765 4.21637 11.1464 4.14645C11.2164 4.07652 11.3055 4.0289 11.4025 4.00961C11.4994 3.99031 11.6 4.00022 11.6913 4.03806C11.7827 4.0759 11.8608 4.13999 11.9157 4.22221C11.9707 4.30444 12 4.40111 12 4.5C12 4.63261 11.9473 4.75979 11.8536 4.85355C11.7598 4.94732 11.6326 5 11.5 5ZM12.5 5C12.5989 5 12.6956 5.02932 12.7778 5.08427C12.86 5.13921 12.9241 5.2173 12.9619 5.30866C12.9998 5.40002 13.0097 5.50055 12.9904 5.59755C12.9711 5.69454 12.9235 5.78363 12.8536 5.85355C12.7836 5.92348 12.6945 5.9711 12.5975 5.99039C12.5006 6.00969 12.4 5.99978 12.3087 5.96194C12.2173 5.9241 12.1392 5.86001 12.0843 5.77779C12.0293 5.69556 12 5.59889 12 5.5C12 5.36739 12.0527 5.24021 12.1464 5.14645C12.2402 5.05268 12.3674 5 12.5 5ZM11.5 7C11.4011 7 11.3044 6.97068 11.2222 6.91573C11.14 6.86079 11.0759 6.7827 11.0381 6.69134C11.0002 6.59998 10.9903 6.49945 11.0096 6.40245C11.0289 6.30546 11.0765 6.21637 11.1464 6.14645C11.2164 6.07652 11.3055 6.0289 11.4025 6.00961C11.4994 5.99031 11.6 6.00022 11.6913 6.03806C11.7827 6.0759 11.8608 6.13999 11.9157 6.22221C11.9707 6.30444 12 6.40111 12 6.5C12 6.63261 11.9473 6.75979 11.8536 6.85355C11.7598 6.94732 11.6326 7 11.5 7ZM12.5 7C12.5989 7 12.6956 7.02932 12.7778 7.08427C12.86 7.13921 12.9241 7.2173 12.9619 7.30866C12.9998 7.40002 13.0097 7.50055 12.9904 7.59755C12.9711 7.69454 12.9235 7.78363 12.8536 7.85355C12.7836 7.92348 12.6945 7.9711 12.5975 7.99039C12.5006 8.00969 12.4 7.99978 12.3087 7.96194C12.2173 7.9241 12.1392 7.86001 12.0843 7.77779C12.0293 7.69556 12 7.59889 12 7.5C12 7.36739 12.0527 7.24021 12.1464 7.14645C12.2402 7.05268 12.3674 7 12.5 7ZM11.5 9C11.4011 9 11.3044 8.97068 11.2222 8.91574C11.14 8.86079 11.0759 8.7827 11.0381 8.69134C11.0002 8.59998 10.9903 8.49944 11.0096 8.40245C11.0289 8.30546 11.0765 8.21637 11.1464 8.14645C11.2164 8.07652 11.3055 8.0289 11.4025 8.00961C11.4994 7.99031 11.6 8.00022 11.6913 8.03806C11.7827 8.0759 11.8608 8.13999 11.9157 8.22221C11.9707 8.30444 12 8.40111 12 8.5C12 8.63261 11.9473 8.75979 11.8536 8.85355C11.7598 8.94732 11.6326 9 11.5 9ZM12.5 9C12.5989 9 12.6956 9.02932 12.7778 9.08426C12.86 9.13921 12.9241 9.2173 12.9619 9.30866C12.9998 9.40002 13.0097 9.50056 12.9904 9.59755C12.9711 9.69454 12.9235 9.78363 12.8536 9.85355C12.7836 9.92348 12.6945 9.9711 12.5975 9.99039C12.5006 10.0097 12.4 9.99978 12.3087 9.96194C12.2173 9.9241 12.1392 9.86001 12.0843 9.77779C12.0293 9.69556 12 9.59889 12 9.5C12 9.36739 12.0527 9.24021 12.1464 9.14645C12.2402 9.05268 12.3674 9 12.5 9ZM11.5 11C11.4011 11 11.3044 10.9707 11.2222 10.9157C11.14 10.8608 11.0759 10.7827 11.0381 10.6913C11.0002 10.6 10.9903 10.4994 11.0096 10.4025C11.0289 10.3055 11.0765 10.2164 11.1464 10.1464C11.2164 10.0765 11.3055 10.0289 11.4025 10.0096C11.4994 9.99031 11.6 10.0002 11.6913 10.0381C11.7827 10.0759 11.8608 10.14 11.9157 10.2222C11.9707 10.3044 12 10.4011 12 10.5C12 10.6326 11.9473 10.7598 11.8536 10.8536C11.7598 10.9473 11.6326 11 11.5 11ZM12.5 11C12.5989 11 12.6956 11.0293 12.7778 11.0843C12.86 11.1392 12.9241 11.2173 12.9619 11.3087C12.9998 11.4 13.0097 11.5006 12.9904 11.5975C12.9711 11.6945 12.9235 11.7836 12.8536 11.8536C12.7836 11.9235 12.6945 11.9711 12.5975 11.9904C12.5006 12.0097 12.4 11.9998 12.3087 11.9619C12.2173 11.9241 12.1392 11.86 12.0843 11.7778C12.0293 11.6956 12 11.5989 12 11.5C12 11.3674 12.0527 11.2402 12.1464 11.1464C12.2402 11.0527 12.3674 11 12.5 11Z"
          fill="#6E6E6E"/>
</svg>
