<svg width="16" height="16" viewBox="0 0 16 16" fill="none" xmlns="http://www.w3.org/2000/svg">
    <g clip-path="url(#clip0_19_54)">
        <path fill-rule="evenodd" clip-rule="evenodd"
              d="M14 12.5775V12.9167C14.0018 12.8802 14.0027 12.8437 14.0027 12.807V12.7C14.0026 12.6591 14.0017 12.6183 14 12.5775ZM7 15H4.20274H4.08574C3.7979 14.9859 3.51566 14.9152 3.25515 14.792C2.99465 14.6687 2.76099 14.4953 2.56753 14.2817C2.37408 14.0681 2.22462 13.8185 2.12771 13.5471C2.0308 13.2757 1.98834 12.9878 2.00274 12.7C2.00554 12.0205 2.21478 11.3579 2.60274 10.8L6.00274 6V2H5.50274C5.37013 2 5.24296 1.94732 5.14919 1.85355C5.05542 1.75979 5.00274 1.63261 5.00274 1.5C5.00274 1.36739 5.05542 1.24021 5.14919 1.14645C5.24296 1.05268 5.37013 1 5.50274 1H10.5027C10.6354 1 10.7625 1.05268 10.8563 1.14645C10.9501 1.24021 11.0027 1.36739 11.0027 1.5C11.0027 1.63261 10.9501 1.75979 10.8563 1.85355C10.7625 1.94732 10.6354 2 10.5027 2H10.0027V6H9.00274V2H7.00274V6H7V6.32187L3.42674 11.367C3.15366 11.7581 3.00581 12.223 3.00274 12.7V12.767C2.99793 13.0887 3.12094 13.3992 3.34478 13.6304C3.56862 13.8616 3.87502 13.9945 4.19674 14H5.12974C4.97031 13.9888 4.81465 13.9463 4.67166 13.8749C4.52868 13.8035 4.4012 13.7046 4.29651 13.5838C4.19182 13.4631 4.11198 13.3228 4.06157 13.1712C4.01116 13.0195 3.99117 12.8594 4.00274 12.7C4.00579 12.2227 4.15364 11.7575 4.42674 11.366L6.10274 9H7V15Z"
              fill="#AFB1B3"/>
        <path fill-rule="evenodd" clip-rule="evenodd"
              d="M12.9374 11.1295C13.3817 11.514 13.3817 12.2032 12.9374 12.5877L9.59533 15.4802C8.97075 16.0207 8 15.577 8 14.751V8.96615C8 8.14015 8.97075 7.69647 9.59533 8.23702L12.9374 11.1295ZM12.5167 12.1016C12.6648 11.9734 12.6648 11.7437 12.5167 11.6155L9.17463 8.72311C8.96644 8.54293 8.64286 8.69082 8.64286 8.96615V14.751C8.64286 15.0264 8.96644 15.1742 9.17463 14.9941L12.5167 12.1016Z"
              fill="#208A3C"/>
        <path d="M11 8L14.5 11C15 11.5 15 12 14.5 12.5L11 15.5" stroke="#208A3C" stroke-width="0.75"
              stroke-linecap="round"/>
    </g>
    <defs>
        <clipPath id="clip0_19_54">
            <rect width="16" height="16" fill="white"/>
        </clipPath>
    </defs>
</svg>
